<svg xmlns="http://www.w3.org/2000/svg" width="30" height="30" viewBox="0 0 30 30">
  <g id="customer-service" transform="translate(-0.572)">
    <g id="Group_28" data-name="Group 28" transform="translate(0.572 4.771)">
      <g id="Group_27" data-name="Group 27">
        <path id="Path_16" data-name="Path 16" d="M24.957,101.348l-1.123-3.37a3.4,3.4,0,0,0-2.615-2.267l-3.242-.59v-.251a4.883,4.883,0,0,0,1.446-1.284h.98a1.457,1.457,0,0,0,1.456-1.456V86.307a6.307,6.307,0,0,0-12.615,0v3.4a1.944,1.944,0,0,0,1.547,1.9,4.861,4.861,0,0,0,2.334,3.265v.251l-3.243.59a3.4,3.4,0,0,0-2.614,2.267l-.194.583L5.421,96.908a.486.486,0,0,1,0-.687l1.916-1.916-3.6-3.6L1.575,92.874a3.4,3.4,0,0,0,0,4.8l6.557,6.557a3.395,3.395,0,0,0,4.788.015l2.363-2.165-.737-.736Zm-4.069-9.218a.486.486,0,0,1-.485.485h-.408a4.819,4.819,0,0,0,.316-1.011,1.922,1.922,0,0,0,.577-.229Zm-.485-1.59V88.868a.962.962,0,0,1,0,1.671Zm-9.7,0a.962.962,0,0,1,0-1.671Zm0-3.261v.554a1.925,1.925,0,0,0-.485.2V86.307a5.337,5.337,0,1,1,10.674,0v1.725a1.907,1.907,0,0,0-.485-.2v-.554h-.485a5.338,5.338,0,0,1-3.8-1.573l-.568-.568-.568.568a5.338,5.338,0,0,1-3.8,1.573Zm.97,3.4V88.23a6.29,6.29,0,0,0,3.881-1.724,6.288,6.288,0,0,0,3.881,1.724v2.444a3.852,3.852,0,0,1-.525,1.941H15.551v.97h2.559a3.875,3.875,0,0,1-6.44-2.911ZM17.006,95.3v.023L15.551,96.78,14.1,95.325V95.3a4.848,4.848,0,0,0,2.911,0ZM8.188,98.284a2.427,2.427,0,0,1,1.867-1.62l3.391-.616,2.1,2.1,2.1-2.1,3.391.616a2.426,2.426,0,0,1,1.867,1.62l.7,2.093H13.575l-1.89-1.89-2.1,1.9a.5.5,0,0,1-.686,0l-1.06-1.06ZM3.74,92.08l2.225,2.225-.527.527L3.213,92.607Zm8.508,11.469a2.426,2.426,0,0,1-3.431,0L2.26,96.991a2.426,2.426,0,0,1,0-3.431l.267-.267,2.225,2.225-.017.017a1.458,1.458,0,0,0,0,2.059l3.479,3.479a1.448,1.448,0,0,0,1.03.426,1.429,1.429,0,0,0,1.012-.409l.036-.033,2.235,2.235Zm.995-.912-2.23-2.23.641-.579,2.226,2.226Z" transform="translate(-0.58 -80)"/>
      </g>
    </g>
    <g id="Group_30" data-name="Group 30" transform="translate(20.868)">
      <g id="Group_29" data-name="Group 29">
        <path id="Path_17" data-name="Path 17" d="M343.676,0h-6.792a1.457,1.457,0,0,0-1.456,1.456V5.337a1.457,1.457,0,0,0,1.456,1.456h1.3l-.5,2.926,4.682-2.926h1.316a1.457,1.457,0,0,0,1.456-1.456V1.456A1.457,1.457,0,0,0,343.676,0Zm.485,5.337a.486.486,0,0,1-.485.485h-1.595L339,7.748l.33-1.926h-2.447a.486.486,0,0,1-.485-.485V1.456a.486.486,0,0,1,.485-.485h6.792a.486.486,0,0,1,.485.485Z" transform="translate(-335.428)"/>
      </g>
    </g>
    <g id="Group_32" data-name="Group 32" transform="translate(22.809 1.941)">
      <g id="Group_31" data-name="Group 31">
        <rect id="Rectangle_33" data-name="Rectangle 33" width="5.822" height="0.97"/>
      </g>
    </g>
    <g id="Group_34" data-name="Group 34" transform="translate(22.809 3.881)">
      <g id="Group_33" data-name="Group 33">
        <rect id="Rectangle_34" data-name="Rectangle 34" width="3.881" height="0.97"/>
      </g>
    </g>
    <g id="Group_36" data-name="Group 36" transform="translate(27.661 3.881)">
      <g id="Group_35" data-name="Group 35">
        <rect id="Rectangle_35" data-name="Rectangle 35" width="0.97" height="0.97"/>
      </g>
    </g>
    <g id="Group_38" data-name="Group 38" transform="translate(0.572 1.456)">
      <g id="Group_37" data-name="Group 37">
        <path id="Path_18" data-name="Path 18" d="M15.543,24A13.576,13.576,0,0,0,2.323,34.5L1.4,32.969l-.832.5L2.277,36.31,5.119,34.6l-.5-.832L3.3,34.561a12.618,12.618,0,0,1,15.976-9.028l.287-.927A13.576,13.576,0,0,0,15.543,24Z" transform="translate(-0.572 -24)"/>
      </g>
    </g>
    <g id="Group_40" data-name="Group 40" transform="translate(25.333 8.99)">
      <g id="Group_39" data-name="Group 39">
        <path id="Path_19" data-name="Path 19" d="M414.04,150.721l-2.842-1.705-1.7,2.842.832.5.849-1.415a12.625,12.625,0,0,1-2.138,12.019l.753.611a13.587,13.587,0,0,0,2.325-12.875l1.426.855Z" transform="translate(-409.036 -149.016)"/>
      </g>
    </g>
  </g>
</svg>
